# xmcd
#
# Track frame offsets:
#	150
#	12087
#	23121
#	34114
#	47989
#	60959
#	71714
#	87354
#	98194
#	111818
#
# Disc length: 1621 seconds
#
# Revision: 0
# Processed by: cddbd v1.5.2PL0 Copyright (c) Steve Scherf et al.
# Submitted via: audiograbber 1.83.01
#
DISCID=7a06530a
DTITLE=Arthur Conley - Soul Directions
DYEAR=1968
DGENRE=Soul
TTITLE0=You Really Know How To Hurt A Guy
TTITLE1=Funky Street
TTITLE2=Burning Fire
TTITLE3=Get  Yourself Another Fool
TTITLE4=Otis Sleep On
TTITLE5=Hear Say
TTITLE6=This Love Of Minde
TTITLE7=Love Comes And Goes
TTITLE8=Put Our Love Together
TTITLE9=People Sure Act Funny
EXTD=
EXTT0=
EXTT1=
EXTT2=
EXTT3=
EXTT4=
EXTT5=
EXTT6=
EXTT7=
EXTT8=
EXTT9=
PLAYORDER=
